<?xml version="1.0" encoding="UTF-8" standalone="no"?>
<!DOCTYPE svg PUBLIC "-//W3C//DTD SVG 1.1//EN"
 "http://www.w3.org/Graphics/SVG/1.1/DTD/svg11.dtd">
<!-- Generated by graphviz version 2.38.0 (20140413.2041)
 -->
<!-- Title: %3 Pages: 1 -->
<svg width="404pt" height="632pt"
 viewBox="0.00 0.00 404.30 631.96" xmlns="http://www.w3.org/2000/svg" xmlns:xlink="http://www.w3.org/1999/xlink">
<g id="graph0" class="graph" transform="scale(1 1) rotate(0) translate(4 627.961)">
<title>%3</title>
<polygon fill="white" stroke="none" points="-4,4 -4,-627.961 400.298,-627.961 400.298,4 -4,4"/>
<!-- 3 -->
<g id="node1" class="node"><title>3</title>
<polygon fill="#ff0000" stroke="#ff0000" points="318.618,-623.959 184.358,-623.959 184.358,-569.967 318.618,-569.967 318.618,-623.959"/>
<text text-anchor="middle" x="251.488" y="-611.961" font-family="Arial" font-size="10.00" fill="#ffffff">~:0:&lt;built&#45;in method exec&gt;</text>
<text text-anchor="middle" x="251.488" y="-600.462" font-family="Arial" font-size="10.00" fill="#ffffff">100.00%</text>
<text text-anchor="middle" x="251.488" y="-588.963" font-family="Arial" font-size="10.00" fill="#ffffff">(0.00%)</text>
<text text-anchor="middle" x="251.488" y="-577.464" font-family="Arial" font-size="10.00" fill="#ffffff">136×</text>
</g>
<!-- 412 -->
<g id="node2" class="node"><title>412</title>
<polygon fill="#ff0000" stroke="#ff0000" points="318.269,-528.965 184.708,-528.965 184.708,-474.973 318.269,-474.973 318.269,-528.965"/>
<text text-anchor="middle" x="251.488" y="-516.967" font-family="Arial" font-size="10.00" fill="#ffffff">BispEstimator:1:&lt;module&gt;</text>
<text text-anchor="middle" x="251.488" y="-505.468" font-family="Arial" font-size="10.00" fill="#ffffff">100.00%</text>
<text text-anchor="middle" x="251.488" y="-493.969" font-family="Arial" font-size="10.00" fill="#ffffff">(0.18%)</text>
<text text-anchor="middle" x="251.488" y="-482.47" font-family="Arial" font-size="10.00" fill="#ffffff">1×</text>
</g>
<!-- 3&#45;&gt;412 -->
<g id="edge1" class="edge"><title>3&#45;&gt;412</title>
<path fill="none" stroke="#ff0000" stroke-width="4" d="M251.488,-569.563C251.488,-560.158 251.488,-549.394 251.488,-539.301"/>
<polygon fill="#ff0000" stroke="#ff0000" stroke-width="4" points="254.988,-539.112 251.488,-529.113 247.988,-539.113 254.988,-539.112"/>
<text text-anchor="middle" x="271.227" y="-552.965" font-family="Arial" font-size="10.00" fill="#ff0000">100.00%</text>
<text text-anchor="middle" x="271.227" y="-541.466" font-family="Arial" font-size="10.00" fill="#ff0000">1×</text>
</g>
<!-- 41 -->
<g id="node5" class="node"><title>41</title>
<polygon fill="#ff0300" stroke="#ff0300" points="312.09,-433.971 190.887,-433.971 190.887,-379.979 312.09,-379.979 312.09,-433.971"/>
<text text-anchor="middle" x="251.488" y="-421.973" font-family="Arial" font-size="10.00" fill="#ffffff">BispEstimator:222:main</text>
<text text-anchor="middle" x="251.488" y="-410.474" font-family="Arial" font-size="10.00" fill="#ffffff">99.68%</text>
<text text-anchor="middle" x="251.488" y="-398.975" font-family="Arial" font-size="10.00" fill="#ffffff">(0.22%)</text>
<text text-anchor="middle" x="251.488" y="-387.476" font-family="Arial" font-size="10.00" fill="#ffffff">1×</text>
</g>
<!-- 412&#45;&gt;41 -->
<g id="edge7" class="edge"><title>412&#45;&gt;41</title>
<path fill="none" stroke="#ff0300" stroke-width="3.99" d="M251.488,-474.569C251.488,-465.164 251.488,-454.4 251.488,-444.307"/>
<polygon fill="#ff0300" stroke="#ff0300" stroke-width="3.99" points="254.988,-444.118 251.488,-434.118 247.988,-444.118 254.988,-444.118"/>
<text text-anchor="middle" x="268.446" y="-457.971" font-family="Arial" font-size="10.00" fill="#ff0300">99.68%</text>
<text text-anchor="middle" x="268.446" y="-446.472" font-family="Arial" font-size="10.00" fill="#ff0300">1×</text>
</g>
<!-- 14 -->
<g id="node3" class="node"><title>14</title>
<polygon fill="#dccb05" stroke="#dccb05" points="388.232,-53.9941 242.745,-53.9941 242.745,-0.00195298 388.232,-0.00195298 388.232,-53.9941"/>
<text text-anchor="middle" x="315.488" y="-41.9961" font-family="Arial" font-size="10.00" fill="#ffffff">~:0:&lt;built&#45;in method einsum&gt;</text>
<text text-anchor="middle" x="315.488" y="-30.4971" font-family="Arial" font-size="10.00" fill="#ffffff">76.97%</text>
<text text-anchor="middle" x="315.488" y="-18.998" font-family="Arial" font-size="10.00" fill="#ffffff">(76.97%)</text>
<text text-anchor="middle" x="315.488" y="-7.49902" font-family="Arial" font-size="10.00" fill="#ffffff">6350×</text>
</g>
<!-- 15 -->
<g id="node4" class="node"><title>15</title>
<polygon fill="#ddcb05" stroke="#ddcb05" points="396.109,-148.988 234.868,-148.988 234.868,-94.9961 396.109,-94.9961 396.109,-148.988"/>
<text text-anchor="middle" x="315.488" y="-136.99" font-family="Arial" font-size="10.00" fill="#ffffff">BispEstimator:205:shellEinsum_i</text>
<text text-anchor="middle" x="315.488" y="-125.491" font-family="Arial" font-size="10.00" fill="#ffffff">77.03%</text>
<text text-anchor="middle" x="315.488" y="-113.992" font-family="Arial" font-size="10.00" fill="#ffffff">(0.05%)</text>
<text text-anchor="middle" x="315.488" y="-102.493" font-family="Arial" font-size="10.00" fill="#ffffff">40×</text>
</g>
<!-- 15&#45;&gt;14 -->
<g id="edge2" class="edge"><title>15&#45;&gt;14</title>
<path fill="none" stroke="#dccb05" stroke-width="3.08" d="M315.488,-94.5925C315.488,-84.7911 315.488,-73.5142 315.488,-63.0597"/>
<polygon fill="#dccb05" stroke="#dccb05" stroke-width="3.08" points="318.568,-62.9418 315.488,-54.1418 312.408,-62.9419 318.568,-62.9418"/>
<text text-anchor="middle" x="332.446" y="-77.9941" font-family="Arial" font-size="10.00" fill="#dccb05">76.97%</text>
<text text-anchor="middle" x="332.446" y="-66.4951" font-family="Arial" font-size="10.00" fill="#dccb05">6350×</text>
</g>
<!-- 146 -->
<g id="node6" class="node"><title>146</title>
<polygon fill="#0c8290" stroke="#0c8290" points="236.155,-338.977 88.8212,-338.977 88.8212,-284.984 236.155,-284.984 236.155,-338.977"/>
<text text-anchor="middle" x="162.488" y="-326.979" font-family="Arial" font-size="10.00" fill="#ffffff">BispEstimator:108:shellFields</text>
<text text-anchor="middle" x="162.488" y="-315.479" font-family="Arial" font-size="10.00" fill="#ffffff">22.42%</text>
<text text-anchor="middle" x="162.488" y="-303.98" font-family="Arial" font-size="10.00" fill="#ffffff">(12.67%)</text>
<text text-anchor="middle" x="162.488" y="-292.481" font-family="Arial" font-size="10.00" fill="#ffffff">1×</text>
</g>
<!-- 41&#45;&gt;146 -->
<g id="edge3" class="edge"><title>41&#45;&gt;146</title>
<path fill="none" stroke="#0c8290" stroke-width="0.9" d="M226.223,-379.575C215.231,-368.09 202.301,-354.58 190.97,-342.741"/>
<polygon fill="#0c8290" stroke="#0c8290" stroke-width="0.9" points="191.947,-341.382 187.509,-339.124 189.57,-343.657 191.947,-341.382"/>
<text text-anchor="middle" x="235.446" y="-362.977" font-family="Arial" font-size="10.00" fill="#0c8290">22.42%</text>
<text text-anchor="middle" x="235.446" y="-351.478" font-family="Arial" font-size="10.00" fill="#0c8290">1×</text>
</g>
<!-- 427 -->
<g id="node7" class="node"><title>427</title>
<polygon fill="#ddcb05" stroke="#ddcb05" points="386.042,-338.977 244.935,-338.977 244.935,-284.984 386.042,-284.984 386.042,-338.977"/>
<text text-anchor="middle" x="315.488" y="-326.979" font-family="Arial" font-size="10.00" fill="#ffffff">BispEstimator:160:shellSum</text>
<text text-anchor="middle" x="315.488" y="-315.479" font-family="Arial" font-size="10.00" fill="#ffffff">77.03%</text>
<text text-anchor="middle" x="315.488" y="-303.98" font-family="Arial" font-size="10.00" fill="#ffffff">(0.00%)</text>
<text text-anchor="middle" x="315.488" y="-292.481" font-family="Arial" font-size="10.00" fill="#ffffff">1×</text>
</g>
<!-- 41&#45;&gt;427 -->
<g id="edge4" class="edge"><title>41&#45;&gt;427</title>
<path fill="none" stroke="#ddcb05" stroke-width="3.08" d="M269.657,-379.575C276.743,-369.278 284.95,-357.354 292.444,-346.465"/>
<polygon fill="#ddcb05" stroke="#ddcb05" stroke-width="3.08" points="295.044,-348.12 297.496,-339.124 289.97,-344.627 295.044,-348.12"/>
<text text-anchor="middle" x="307.446" y="-362.977" font-family="Arial" font-size="10.00" fill="#ddcb05">77.03%</text>
<text text-anchor="middle" x="307.446" y="-351.478" font-family="Arial" font-size="10.00" fill="#ddcb05">1×</text>
</g>
<!-- 453 -->
<g id="node9" class="node"><title>453</title>
<polygon fill="#0d1776" stroke="#0d1776" points="86.9648,-243.982 0.0117156,-243.982 0.0117156,-189.99 86.9648,-189.99 86.9648,-243.982"/>
<text text-anchor="middle" x="43.4883" y="-231.984" font-family="Arial" font-size="10.00" fill="#ffffff">builders:328:fftn</text>
<text text-anchor="middle" x="43.4883" y="-220.485" font-family="Arial" font-size="10.00" fill="#ffffff">2.47%</text>
<text text-anchor="middle" x="43.4883" y="-208.986" font-family="Arial" font-size="10.00" fill="#ffffff">(0.01%)</text>
<text text-anchor="middle" x="43.4883" y="-197.487" font-family="Arial" font-size="10.00" fill="#ffffff">1×</text>
</g>
<!-- 146&#45;&gt;453 -->
<g id="edge5" class="edge"><title>146&#45;&gt;453</title>
<path fill="none" stroke="#0d1776" stroke-width="0.5" d="M129.023,-284.829C113.814,-272.943 95.7767,-258.848 80.196,-246.672"/>
<polygon fill="#0d1776" stroke="#0d1776" stroke-width="0.5" points="80.6263,-245.454 77.1142,-244.264 79.1177,-247.384 80.6263,-245.454"/>
<text text-anchor="middle" x="131.666" y="-267.982" font-family="Arial" font-size="10.00" fill="#0d1776">2.47%</text>
<text text-anchor="middle" x="131.666" y="-256.483" font-family="Arial" font-size="10.00" fill="#0d1776">1×</text>
</g>
<!-- 622 -->
<g id="node10" class="node"><title>622</title>
<polygon fill="#0d2c7c" stroke="#0d2c7c" points="230.934,-243.982 96.043,-243.982 96.043,-189.99 230.934,-189.99 230.934,-243.982"/>
<text text-anchor="middle" x="163.488" y="-231.984" font-family="Arial" font-size="10.00" fill="#ffffff">BispEstimator:144:shellBin</text>
<text text-anchor="middle" x="163.488" y="-220.485" font-family="Arial" font-size="10.00" fill="#ffffff">7.12%</text>
<text text-anchor="middle" x="163.488" y="-208.986" font-family="Arial" font-size="10.00" fill="#ffffff">(7.12%)</text>
<text text-anchor="middle" x="163.488" y="-197.487" font-family="Arial" font-size="10.00" fill="#ffffff">1×</text>
</g>
<!-- 146&#45;&gt;622 -->
<g id="edge6" class="edge"><title>146&#45;&gt;622</title>
<path fill="none" stroke="#0d2c7c" stroke-width="0.5" d="M162.772,-284.581C162.896,-273.096 163.041,-259.586 163.168,-247.747"/>
<polygon fill="#0d2c7c" stroke="#0d2c7c" stroke-width="0.5" points="164.394,-247.643 163.207,-244.13 161.944,-247.617 164.394,-247.643"/>
<text text-anchor="middle" x="177.666" y="-267.982" font-family="Arial" font-size="10.00" fill="#0d2c7c">7.12%</text>
<text text-anchor="middle" x="177.666" y="-256.483" font-family="Arial" font-size="10.00" fill="#0d2c7c">1×</text>
</g>
<!-- 711 -->
<g id="node11" class="node"><title>711</title>
<polygon fill="#ddcb05" stroke="#ddcb05" points="389.769,-243.982 241.208,-243.982 241.208,-189.99 389.769,-189.99 389.769,-243.982"/>
<text text-anchor="middle" x="315.488" y="-231.984" font-family="Arial" font-size="10.00" fill="#ffffff">BispEstimator:184:&lt;listcomp&gt;</text>
<text text-anchor="middle" x="315.488" y="-220.485" font-family="Arial" font-size="10.00" fill="#ffffff">77.03%</text>
<text text-anchor="middle" x="315.488" y="-208.986" font-family="Arial" font-size="10.00" fill="#ffffff">(0.00%)</text>
<text text-anchor="middle" x="315.488" y="-197.487" font-family="Arial" font-size="10.00" fill="#ffffff">1×</text>
</g>
<!-- 427&#45;&gt;711 -->
<g id="edge8" class="edge"><title>427&#45;&gt;711</title>
<path fill="none" stroke="#ddcb05" stroke-width="3.08" d="M315.488,-284.581C315.488,-274.779 315.488,-263.503 315.488,-253.048"/>
<polygon fill="#ddcb05" stroke="#ddcb05" stroke-width="3.08" points="318.568,-252.93 315.488,-244.13 312.408,-252.93 318.568,-252.93"/>
<text text-anchor="middle" x="332.446" y="-267.982" font-family="Arial" font-size="10.00" fill="#ddcb05">77.03%</text>
<text text-anchor="middle" x="332.446" y="-256.483" font-family="Arial" font-size="10.00" fill="#ddcb05">1×</text>
</g>
<!-- 43 -->
<g id="node8" class="node"><title>43</title>
<polygon fill="#0d1776" stroke="#0d1776" points="84.46,-148.988 2.5166,-148.988 2.5166,-94.9961 84.46,-94.9961 84.46,-148.988"/>
<text text-anchor="middle" x="43.4883" y="-136.99" font-family="Arial" font-size="10.00" fill="#ffffff">_utils:55:_Xfftn</text>
<text text-anchor="middle" x="43.4883" y="-125.491" font-family="Arial" font-size="10.00" fill="#ffffff">2.46%</text>
<text text-anchor="middle" x="43.4883" y="-113.992" font-family="Arial" font-size="10.00" fill="#ffffff">(2.35%)</text>
<text text-anchor="middle" x="43.4883" y="-102.493" font-family="Arial" font-size="10.00" fill="#ffffff">1×</text>
</g>
<!-- 453&#45;&gt;43 -->
<g id="edge9" class="edge"><title>453&#45;&gt;43</title>
<path fill="none" stroke="#0d1776" stroke-width="0.5" d="M43.4883,-189.587C43.4883,-178.102 43.4883,-164.592 43.4883,-152.753"/>
<polygon fill="#0d1776" stroke="#0d1776" stroke-width="0.5" points="44.7134,-152.636 43.4883,-149.136 42.2634,-152.636 44.7134,-152.636"/>
<text text-anchor="middle" x="57.6655" y="-172.988" font-family="Arial" font-size="10.00" fill="#0d1776">2.46%</text>
<text text-anchor="middle" x="57.6655" y="-161.489" font-family="Arial" font-size="10.00" fill="#0d1776">1×</text>
</g>
<!-- 711&#45;&gt;15 -->
<g id="edge10" class="edge"><title>711&#45;&gt;15</title>
<path fill="none" stroke="#ddcb05" stroke-width="3.08" d="M315.488,-189.587C315.488,-179.785 315.488,-168.508 315.488,-158.054"/>
<polygon fill="#ddcb05" stroke="#ddcb05" stroke-width="3.08" points="318.568,-157.936 315.488,-149.136 312.408,-157.936 318.568,-157.936"/>
<text text-anchor="middle" x="332.446" y="-172.988" font-family="Arial" font-size="10.00" fill="#ddcb05">77.03%</text>
<text text-anchor="middle" x="332.446" y="-161.489" font-family="Arial" font-size="10.00" fill="#ddcb05">40×</text>
</g>
</g>
</svg>
